# xmcd
#
# Track frame offsets: 
#        150
#        15216
#        16863
#        34639
#        51507
#        71662
#        86586
#        105657
#        124540
#        142865
#        157845
#
# Disc length: 2387 seconds
#
# Revision: 0
# Processed by: cddbd v1.5.2PL0 Copyright (c) Steve Scherf et al.
# Submitted via: ExactAudioCopy v1.3
#
DISCID=7a09510b
DTITLE=Dirt River Radio - Just For Kicks
DYEAR=2018
DGENRE=Blues
TTITLE0=Kill Everyone In The Room
TTITLE1=When I Was 18 (prelude)
TTITLE2=Dangerous
TTITLE3=Kings Of The Beach
TTITLE4=Heartbreak Radio
TTITLE5=Kiss Of The Year
TTITLE6=Westcoast Hurt
TTITLE7=Starlit Sky
TTITLE8=Out Tonight
TTITLE9=His Electric Eye
TTITLE10=When I Was 18 (reprise)
EXTD=
EXTT0=
EXTT1=
EXTT2=
EXTT3=
EXTT4=
EXTT5=
EXTT6=
EXTT7=
EXTT8=
EXTT9=
EXTT10=
PLAYORDER=
